<?xml version="1.0" encoding="UTF-8" standalone="no"?>
<svg width="100px" height="100px" viewBox="0 0 100 100" version="1.1" xmlns="http://www.w3.org/2000/svg" xmlns:xlink="http://www.w3.org/1999/xlink">
    <!-- Generator: Sketch 41 (35326) - http://www.bohemiancoding.com/sketch -->
    <title>Logo</title>
    <desc>Created with Sketch.</desc>
    <defs></defs>
    <g id="Page-1" stroke="none" stroke-width="1" fill="none" fill-rule="evenodd">
        <g id="Desktop-HD" transform="translate(-435.000000, -128.000000)">
            <g id="Logo" transform="translate(435.000000, 128.000000)">
                <rect id="Rectangle" fill="#5C7CFA" x="0" y="0" width="100" height="100"></rect>
                <path d="M41.5234375,39.934082 L41.5234375,73.190918 L27.6464844,73.190918 L27.6464844,26.5356445 L45.7275391,26.5356445 C53.6572662,26.5356445 59.866514,28.3357567 64.3554688,31.9360352 C69.6875267,36.2426973 72.3535156,42.0873654 72.3535156,49.4702148 C72.3535156,56.5340522 70.0748926,62.2989686 65.5175781,66.7651367 C60.9602637,71.2313049 55.0928093,73.4643555 47.9150391,73.4643555 C47.0719359,73.4643555 45.6933689,73.418783 43.7792969,73.3276367 L43.7792969,59.621582 L46.0009766,59.621582 C54.0902097,59.621582 58.1347656,56.2378268 58.1347656,49.4702148 C58.1347656,43.1127612 54.1585684,39.934082 46.2060547,39.934082 L41.5234375,39.934082 Z" id="D" fill="#FFFFFF"></path>
            </g>
        </g>
    </g>
</svg>